<?xml version="1.0" encoding="UTF-8" standalone="no"?>
<!DOCTYPE svg PUBLIC "-//W3C//DTD SVG 1.1//EN" "http://www.w3.org/Graphics/SVG/1.1/DTD/svg11.dtd">
<svg width="100%" height="100%" viewBox="0 0 1421 1400" version="1.1" xmlns="http://www.w3.org/2000/svg" xmlns:xlink="http://www.w3.org/1999/xlink" xml:space="preserve" xmlns:serif="http://www.serif.com/" style="fill-rule:evenodd;clip-rule:evenodd;stroke-linejoin:round;stroke-miterlimit:2;">
    <g transform="matrix(1,0,0,1,-31.297831,-119.715309)">
        <g transform="matrix(1.80752,0,0,1.80752,-1261.065175,-462.915438)">
            <g transform="matrix(300,0,0,300,714.248495,535.618342)">
                <path d="M0.151,-0.711L0.307,-0.379L0.464,-0.711L0.612,-0.711L0.375,-0.26L0.375,-0L0.239,-0L0.239,-0.26L0.002,-0.711L0.151,-0.711Z" style="fill-rule:nonzero;"/>
            </g>
            <g transform="matrix(300,0,0,300,889.150838,535.618342)">
                <path d="M0.035,-0.259L0.035,-0.269C0.035,-0.308 0.041,-0.343 0.052,-0.376C0.063,-0.409 0.079,-0.437 0.1,-0.461C0.121,-0.485 0.147,-0.504 0.178,-0.518C0.208,-0.531 0.243,-0.538 0.282,-0.538C0.322,-0.538 0.357,-0.531 0.388,-0.518C0.419,-0.504 0.445,-0.485 0.466,-0.461C0.487,-0.437 0.503,-0.409 0.514,-0.376C0.525,-0.343 0.531,-0.308 0.531,-0.269L0.531,-0.259C0.531,-0.22 0.525,-0.185 0.514,-0.152C0.503,-0.12 0.487,-0.091 0.466,-0.067C0.445,-0.043 0.419,-0.024 0.388,-0.01C0.358,0.003 0.323,0.01 0.283,0.01C0.244,0.01 0.209,0.003 0.178,-0.01C0.147,-0.024 0.121,-0.043 0.1,-0.067C0.079,-0.091 0.063,-0.12 0.052,-0.152C0.041,-0.185 0.035,-0.22 0.035,-0.259ZM0.164,-0.269L0.164,-0.259C0.164,-0.236 0.166,-0.214 0.171,-0.194C0.175,-0.174 0.182,-0.156 0.192,-0.141C0.201,-0.126 0.214,-0.114 0.229,-0.105C0.244,-0.096 0.262,-0.092 0.283,-0.092C0.304,-0.092 0.322,-0.096 0.337,-0.105C0.352,-0.114 0.364,-0.126 0.374,-0.141C0.383,-0.156 0.39,-0.174 0.395,-0.194C0.399,-0.214 0.402,-0.236 0.402,-0.259L0.402,-0.269C0.402,-0.292 0.399,-0.313 0.395,-0.333C0.39,-0.353 0.383,-0.371 0.374,-0.386C0.364,-0.402 0.352,-0.414 0.337,-0.423C0.322,-0.432 0.304,-0.436 0.282,-0.436C0.262,-0.436 0.244,-0.432 0.229,-0.423C0.214,-0.414 0.201,-0.402 0.192,-0.386C0.182,-0.371 0.175,-0.353 0.171,-0.333C0.166,-0.313 0.164,-0.292 0.164,-0.269Z" style="fill-rule:nonzero;"/>
            </g>
            <g transform="matrix(300,0,0,300,1058.926229,535.618342)">
                <path d="M0.373,-0.125L0.373,-0.528L0.502,-0.528L0.502,-0L0.38,-0L0.373,-0.125ZM0.389,-0.235L0.429,-0.236C0.429,-0.2 0.425,-0.168 0.418,-0.138C0.41,-0.108 0.397,-0.082 0.381,-0.06C0.365,-0.038 0.344,-0.021 0.319,-0.009C0.294,0.004 0.264,0.01 0.23,0.01C0.204,0.01 0.18,0.006 0.159,-0.001C0.137,-0.009 0.119,-0.02 0.103,-0.036C0.088,-0.052 0.076,-0.072 0.067,-0.097C0.059,-0.122 0.055,-0.152 0.055,-0.187L0.055,-0.528L0.184,-0.528L0.184,-0.186C0.184,-0.169 0.186,-0.154 0.19,-0.142C0.194,-0.13 0.2,-0.121 0.207,-0.114C0.214,-0.106 0.223,-0.101 0.233,-0.098C0.243,-0.095 0.253,-0.093 0.265,-0.093C0.296,-0.093 0.321,-0.099 0.339,-0.112C0.357,-0.124 0.37,-0.141 0.377,-0.163C0.385,-0.184 0.389,-0.208 0.389,-0.235Z" style="fill-rule:nonzero;"/>
            </g>
            <g transform="matrix(300,0,0,300,1226.35787,535.618342)">
                <path d="M0.187,-0.42L0.187,-0L0.058,-0L0.058,-0.528L0.18,-0.528L0.187,-0.42ZM0.347,-0.532L0.346,-0.412C0.339,-0.413 0.331,-0.414 0.322,-0.415C0.313,-0.415 0.304,-0.416 0.296,-0.416C0.276,-0.416 0.259,-0.413 0.244,-0.408C0.229,-0.402 0.217,-0.394 0.207,-0.384C0.197,-0.374 0.189,-0.362 0.184,-0.347C0.179,-0.333 0.176,-0.317 0.175,-0.298L0.148,-0.302C0.148,-0.335 0.151,-0.367 0.158,-0.395C0.164,-0.424 0.174,-0.449 0.187,-0.47C0.201,-0.492 0.217,-0.508 0.237,-0.52C0.256,-0.532 0.279,-0.538 0.305,-0.538C0.312,-0.538 0.32,-0.537 0.328,-0.536C0.336,-0.535 0.343,-0.534 0.347,-0.532Z" style="fill-rule:nonzero;"/>
            </g>
            <g transform="matrix(300,0,0,300,1334.316854,535.618342)">
            </g>
            <g transform="matrix(300,0,0,300,714.248495,785.618342)">
                <path d="M0.519,-0.105L0.519,-0L0.162,-0L0.162,-0.105L0.519,-0.105ZM0.202,-0.711L0.202,-0L0.068,-0L0.068,-0.711L0.202,-0.711Z" style="fill-rule:nonzero;"/>
            </g>
            <g transform="matrix(300,0,0,300,876.406698,785.618342)">
                <path d="M0.035,-0.259L0.035,-0.269C0.035,-0.308 0.041,-0.343 0.052,-0.376C0.063,-0.409 0.079,-0.437 0.1,-0.461C0.121,-0.485 0.147,-0.504 0.178,-0.518C0.208,-0.531 0.243,-0.538 0.282,-0.538C0.322,-0.538 0.357,-0.531 0.388,-0.518C0.419,-0.504 0.445,-0.485 0.466,-0.461C0.487,-0.437 0.503,-0.409 0.514,-0.376C0.525,-0.343 0.531,-0.308 0.531,-0.269L0.531,-0.259C0.531,-0.22 0.525,-0.185 0.514,-0.152C0.503,-0.12 0.487,-0.091 0.466,-0.067C0.445,-0.043 0.419,-0.024 0.388,-0.01C0.358,0.003 0.323,0.01 0.283,0.01C0.244,0.01 0.209,0.003 0.178,-0.01C0.147,-0.024 0.121,-0.043 0.1,-0.067C0.079,-0.091 0.063,-0.12 0.052,-0.152C0.041,-0.185 0.035,-0.22 0.035,-0.259ZM0.164,-0.269L0.164,-0.259C0.164,-0.236 0.166,-0.214 0.171,-0.194C0.175,-0.174 0.182,-0.156 0.192,-0.141C0.201,-0.126 0.214,-0.114 0.229,-0.105C0.244,-0.096 0.262,-0.092 0.283,-0.092C0.304,-0.092 0.322,-0.096 0.337,-0.105C0.352,-0.114 0.364,-0.126 0.374,-0.141C0.383,-0.156 0.39,-0.174 0.395,-0.194C0.399,-0.214 0.402,-0.236 0.402,-0.259L0.402,-0.269C0.402,-0.292 0.399,-0.313 0.395,-0.333C0.39,-0.353 0.383,-0.371 0.374,-0.386C0.364,-0.402 0.352,-0.414 0.337,-0.423C0.322,-0.432 0.304,-0.436 0.282,-0.436C0.262,-0.436 0.244,-0.432 0.229,-0.423C0.214,-0.414 0.201,-0.402 0.192,-0.386C0.182,-0.371 0.175,-0.353 0.171,-0.333C0.166,-0.313 0.164,-0.292 0.164,-0.269Z" style="fill-rule:nonzero;"/>
            </g>
            <g transform="matrix(300,0,0,300,1046.182088,785.618342)">
                <path d="M0.275,-0.092C0.293,-0.092 0.309,-0.096 0.324,-0.103C0.338,-0.11 0.35,-0.12 0.358,-0.133C0.367,-0.146 0.371,-0.161 0.372,-0.178L0.494,-0.178C0.493,-0.143 0.483,-0.111 0.464,-0.082C0.444,-0.054 0.418,-0.031 0.385,-0.015C0.353,0.002 0.317,0.01 0.277,0.01C0.236,0.01 0.201,0.003 0.171,-0.011C0.14,-0.025 0.115,-0.044 0.095,-0.068C0.075,-0.092 0.06,-0.121 0.05,-0.153C0.04,-0.185 0.035,-0.219 0.035,-0.256L0.035,-0.272C0.035,-0.309 0.04,-0.343 0.05,-0.375C0.06,-0.408 0.075,-0.436 0.095,-0.46C0.115,-0.485 0.14,-0.504 0.17,-0.517C0.201,-0.531 0.236,-0.538 0.276,-0.538C0.319,-0.538 0.356,-0.53 0.389,-0.513C0.421,-0.496 0.447,-0.473 0.465,-0.443C0.484,-0.412 0.493,-0.377 0.494,-0.336L0.372,-0.336C0.371,-0.355 0.367,-0.372 0.359,-0.387C0.352,-0.402 0.34,-0.414 0.326,-0.423C0.312,-0.432 0.294,-0.436 0.274,-0.436C0.252,-0.436 0.234,-0.432 0.219,-0.423C0.205,-0.414 0.194,-0.401 0.186,-0.385C0.178,-0.37 0.172,-0.352 0.169,-0.333C0.166,-0.313 0.164,-0.293 0.164,-0.272L0.164,-0.256C0.164,-0.235 0.166,-0.215 0.169,-0.195C0.172,-0.175 0.178,-0.158 0.186,-0.142C0.194,-0.127 0.205,-0.115 0.22,-0.106C0.234,-0.097 0.252,-0.092 0.275,-0.092Z" style="fill-rule:nonzero;"/>
            </g>
            <g transform="matrix(300,0,0,300,1202.627401,785.618342)">
                <path d="M0.349,-0.113L0.349,-0.356C0.349,-0.374 0.346,-0.389 0.34,-0.402C0.334,-0.415 0.324,-0.425 0.312,-0.433C0.299,-0.44 0.283,-0.443 0.263,-0.443C0.246,-0.443 0.231,-0.44 0.218,-0.434C0.205,-0.429 0.195,-0.42 0.188,-0.41C0.181,-0.399 0.178,-0.387 0.178,-0.373L0.049,-0.373C0.049,-0.395 0.054,-0.416 0.064,-0.436C0.075,-0.456 0.09,-0.473 0.109,-0.489C0.129,-0.504 0.152,-0.516 0.179,-0.525C0.206,-0.534 0.237,-0.538 0.27,-0.538C0.311,-0.538 0.346,-0.531 0.378,-0.518C0.409,-0.504 0.434,-0.484 0.452,-0.457C0.47,-0.43 0.479,-0.396 0.479,-0.355L0.479,-0.125C0.479,-0.098 0.481,-0.076 0.484,-0.057C0.488,-0.038 0.493,-0.022 0.499,-0.008L0.499,-0L0.368,-0C0.362,-0.013 0.357,-0.031 0.354,-0.051C0.351,-0.072 0.349,-0.092 0.349,-0.113ZM0.367,-0.322L0.368,-0.245L0.287,-0.245C0.266,-0.245 0.249,-0.243 0.233,-0.239C0.218,-0.235 0.206,-0.229 0.196,-0.221C0.186,-0.214 0.179,-0.204 0.174,-0.194C0.169,-0.183 0.166,-0.171 0.166,-0.158C0.166,-0.145 0.17,-0.134 0.176,-0.123C0.182,-0.113 0.19,-0.104 0.202,-0.098C0.213,-0.092 0.227,-0.089 0.243,-0.089C0.266,-0.089 0.285,-0.094 0.302,-0.103C0.319,-0.112 0.332,-0.124 0.342,-0.137C0.351,-0.15 0.356,-0.163 0.357,-0.175L0.394,-0.119C0.39,-0.106 0.383,-0.092 0.374,-0.077C0.364,-0.062 0.353,-0.048 0.338,-0.035C0.324,-0.022 0.307,-0.011 0.286,-0.003C0.266,0.006 0.243,0.01 0.216,0.01C0.182,0.01 0.151,0.003 0.124,-0.011C0.097,-0.024 0.076,-0.043 0.061,-0.067C0.045,-0.091 0.037,-0.118 0.037,-0.148C0.037,-0.176 0.042,-0.2 0.053,-0.222C0.063,-0.244 0.079,-0.262 0.099,-0.277C0.12,-0.291 0.145,-0.302 0.176,-0.31C0.206,-0.318 0.241,-0.322 0.28,-0.322L0.367,-0.322Z" style="fill-rule:nonzero;"/>
            </g>
            <g transform="matrix(300,0,0,300,1363.760213,785.618342)">
                <rect x="0.065" y="-0.75" width="0.13" height="0.75" style="fill-rule:nonzero;"/>
            </g>
            <g transform="matrix(300,0,0,300,1441.689901,785.618342)">
            </g>
            <g transform="matrix(300,0,0,300,714.248495,1035.618342)">
                <path d="M0.341,-0.259L0.158,-0.259L0.158,-0.365L0.341,-0.365C0.371,-0.365 0.396,-0.37 0.414,-0.38C0.433,-0.39 0.447,-0.403 0.456,-0.421C0.464,-0.438 0.469,-0.458 0.469,-0.48C0.469,-0.502 0.464,-0.523 0.456,-0.542C0.447,-0.561 0.433,-0.576 0.414,-0.587C0.396,-0.599 0.371,-0.605 0.341,-0.605L0.202,-0.605L0.202,-0L0.068,-0L0.068,-0.711L0.341,-0.711C0.397,-0.711 0.444,-0.701 0.483,-0.681C0.522,-0.662 0.552,-0.634 0.573,-0.6C0.594,-0.565 0.604,-0.526 0.604,-0.481C0.604,-0.436 0.594,-0.396 0.573,-0.363C0.552,-0.33 0.522,-0.304 0.483,-0.286C0.444,-0.268 0.397,-0.259 0.341,-0.259Z" style="fill-rule:nonzero;"/>
            </g>
            <g transform="matrix(300,0,0,300,905.117635,1035.618342)">
                <path d="M0.349,-0.113L0.349,-0.356C0.349,-0.374 0.346,-0.389 0.34,-0.402C0.334,-0.415 0.324,-0.425 0.312,-0.433C0.299,-0.44 0.283,-0.443 0.263,-0.443C0.246,-0.443 0.231,-0.44 0.218,-0.434C0.205,-0.429 0.195,-0.42 0.188,-0.41C0.181,-0.399 0.178,-0.387 0.178,-0.373L0.049,-0.373C0.049,-0.395 0.054,-0.416 0.064,-0.436C0.075,-0.456 0.09,-0.473 0.109,-0.489C0.129,-0.504 0.152,-0.516 0.179,-0.525C0.206,-0.534 0.237,-0.538 0.27,-0.538C0.311,-0.538 0.346,-0.531 0.378,-0.518C0.409,-0.504 0.434,-0.484 0.452,-0.457C0.47,-0.43 0.479,-0.396 0.479,-0.355L0.479,-0.125C0.479,-0.098 0.481,-0.076 0.484,-0.057C0.488,-0.038 0.493,-0.022 0.499,-0.008L0.499,-0L0.368,-0C0.362,-0.013 0.357,-0.031 0.354,-0.051C0.351,-0.072 0.349,-0.092 0.349,-0.113ZM0.367,-0.322L0.368,-0.245L0.287,-0.245C0.266,-0.245 0.249,-0.243 0.233,-0.239C0.218,-0.235 0.206,-0.229 0.196,-0.221C0.186,-0.214 0.179,-0.204 0.174,-0.194C0.169,-0.183 0.166,-0.171 0.166,-0.158C0.166,-0.145 0.17,-0.134 0.176,-0.123C0.182,-0.113 0.19,-0.104 0.202,-0.098C0.213,-0.092 0.227,-0.089 0.243,-0.089C0.266,-0.089 0.285,-0.094 0.302,-0.103C0.319,-0.112 0.332,-0.124 0.342,-0.137C0.351,-0.15 0.356,-0.163 0.357,-0.175L0.394,-0.119C0.39,-0.106 0.383,-0.092 0.374,-0.077C0.364,-0.062 0.353,-0.048 0.338,-0.035C0.324,-0.022 0.307,-0.011 0.286,-0.003C0.266,0.006 0.243,0.01 0.216,0.01C0.182,0.01 0.151,0.003 0.124,-0.011C0.097,-0.024 0.076,-0.043 0.061,-0.067C0.045,-0.091 0.037,-0.118 0.037,-0.148C0.037,-0.176 0.042,-0.2 0.053,-0.222C0.063,-0.244 0.079,-0.262 0.099,-0.277C0.12,-0.291 0.145,-0.302 0.176,-0.31C0.206,-0.318 0.241,-0.322 0.28,-0.322L0.367,-0.322Z" style="fill-rule:nonzero;"/>
            </g>
            <g transform="matrix(300,0,0,300,1066.250448,1035.618342)">
                <path d="M0.187,-0.427L0.187,0.203L0.058,0.203L0.058,-0.528L0.177,-0.528L0.187,-0.427ZM0.526,-0.27L0.526,-0.259C0.526,-0.221 0.522,-0.185 0.513,-0.153C0.504,-0.12 0.491,-0.091 0.474,-0.067C0.456,-0.043 0.435,-0.024 0.409,-0.01C0.384,0.003 0.354,0.01 0.321,0.01C0.289,0.01 0.26,0.003 0.236,-0.009C0.212,-0.022 0.192,-0.04 0.175,-0.063C0.159,-0.086 0.145,-0.113 0.135,-0.143C0.125,-0.174 0.118,-0.208 0.113,-0.244L0.113,-0.277C0.118,-0.316 0.125,-0.351 0.135,-0.383C0.146,-0.414 0.159,-0.442 0.175,-0.465C0.192,-0.488 0.212,-0.506 0.236,-0.519C0.26,-0.532 0.288,-0.538 0.32,-0.538C0.354,-0.538 0.383,-0.532 0.409,-0.519C0.434,-0.506 0.456,-0.488 0.474,-0.464C0.491,-0.441 0.504,-0.412 0.513,-0.379C0.522,-0.346 0.526,-0.31 0.526,-0.27ZM0.397,-0.259L0.397,-0.27C0.397,-0.293 0.395,-0.315 0.391,-0.335C0.387,-0.355 0.38,-0.372 0.371,-0.387C0.362,-0.402 0.351,-0.414 0.337,-0.423C0.323,-0.431 0.306,-0.435 0.286,-0.435C0.266,-0.435 0.249,-0.432 0.235,-0.426C0.221,-0.419 0.209,-0.41 0.2,-0.398C0.19,-0.386 0.183,-0.372 0.178,-0.355C0.173,-0.339 0.17,-0.321 0.169,-0.301L0.169,-0.22C0.171,-0.196 0.177,-0.174 0.186,-0.155C0.194,-0.135 0.207,-0.12 0.223,-0.109C0.239,-0.098 0.261,-0.092 0.287,-0.092C0.307,-0.092 0.324,-0.096 0.338,-0.105C0.352,-0.114 0.363,-0.126 0.372,-0.141C0.381,-0.157 0.387,-0.175 0.391,-0.195C0.395,-0.215 0.397,-0.236 0.397,-0.259Z" style="fill-rule:nonzero;"/>
            </g>
            <g transform="matrix(300,0,0,300,1235.000448,1035.618342)">
                <path d="M0.295,0.01C0.255,0.01 0.22,0.003 0.188,-0.01C0.156,-0.023 0.129,-0.041 0.106,-0.064C0.084,-0.088 0.067,-0.115 0.055,-0.146C0.043,-0.177 0.037,-0.21 0.037,-0.246L0.037,-0.266C0.037,-0.306 0.043,-0.343 0.055,-0.377C0.066,-0.41 0.083,-0.439 0.104,-0.463C0.126,-0.487 0.152,-0.506 0.181,-0.519C0.211,-0.532 0.244,-0.538 0.281,-0.538C0.318,-0.538 0.351,-0.532 0.38,-0.519C0.409,-0.507 0.433,-0.489 0.452,-0.466C0.471,-0.443 0.485,-0.416 0.495,-0.384C0.505,-0.353 0.51,-0.318 0.51,-0.279L0.51,-0.225L0.096,-0.225L0.096,-0.314L0.383,-0.314L0.383,-0.324C0.382,-0.344 0.378,-0.363 0.371,-0.38C0.364,-0.397 0.353,-0.411 0.338,-0.421C0.323,-0.431 0.304,-0.436 0.28,-0.436C0.261,-0.436 0.244,-0.432 0.23,-0.424C0.216,-0.416 0.204,-0.404 0.195,-0.389C0.185,-0.374 0.178,-0.356 0.174,-0.335C0.169,-0.314 0.167,-0.291 0.167,-0.266L0.167,-0.246C0.167,-0.224 0.17,-0.203 0.176,-0.185C0.182,-0.166 0.191,-0.149 0.203,-0.136C0.215,-0.122 0.229,-0.111 0.246,-0.103C0.263,-0.096 0.282,-0.092 0.303,-0.092C0.33,-0.092 0.355,-0.097 0.377,-0.108C0.399,-0.118 0.418,-0.134 0.434,-0.155L0.499,-0.087C0.488,-0.071 0.473,-0.056 0.454,-0.041C0.436,-0.026 0.413,-0.014 0.387,-0.004C0.36,0.005 0.33,0.01 0.295,0.01Z" style="fill-rule:nonzero;"/>
            </g>
            <g transform="matrix(300,0,0,300,1396.426229,1035.618342)">
                <path d="M0.187,-0.42L0.187,-0L0.058,-0L0.058,-0.528L0.18,-0.528L0.187,-0.42ZM0.347,-0.532L0.346,-0.412C0.339,-0.413 0.331,-0.414 0.322,-0.415C0.313,-0.415 0.304,-0.416 0.296,-0.416C0.276,-0.416 0.259,-0.413 0.244,-0.408C0.229,-0.402 0.217,-0.394 0.207,-0.384C0.197,-0.374 0.189,-0.362 0.184,-0.347C0.179,-0.333 0.176,-0.317 0.175,-0.298L0.148,-0.302C0.148,-0.335 0.151,-0.367 0.158,-0.395C0.164,-0.424 0.174,-0.449 0.187,-0.47C0.201,-0.492 0.217,-0.508 0.237,-0.52C0.256,-0.532 0.279,-0.538 0.305,-0.538C0.312,-0.538 0.32,-0.537 0.328,-0.536C0.336,-0.535 0.343,-0.534 0.347,-0.532Z" style="fill-rule:nonzero;"/>
            </g>
            <g transform="matrix(300,0,0,300,1504.385213,1035.618342)">
            </g>
        </g>
    </g>
</svg>
